<?xml version="1.0" encoding="UTF-8"?>
<svg version="1.1" xmlns="http://www.w3.org/2000/svg" width="225" height="225">
<path d="M0 0 C74.25 0 148.5 0 225 0 C225 74.25 225 148.5 225 225 C150.75 225 76.5 225 0 225 C0 150.75 0 76.5 0 0 Z " fill="#007E7E" transform="translate(0,0)"/>
<path d="M0 0 C74.25 0 148.5 0 225 0 C225 74.25 225 148.5 225 225 C150.75 225 76.5 225 0 225 C0 150.75 0 76.5 0 0 Z M40 53 C31.05964188 63.72151264 24.60343424 77.57246611 21 91 C20.77570312 91.83015625 20.55140625 92.6603125 20.3203125 93.515625 C15.03403845 117.12282143 21.19390993 142.77909938 33.46875 163.1953125 C37.26246267 169.13420812 42.03387192 174.04150038 47 179 C47.58136719 179.65226563 48.16273437 180.30453125 48.76171875 180.9765625 C63.33152792 197.05106229 87.19892014 204.95647875 108.265625 206.34375 C132.46639664 206.91317992 157.19435398 198.53958647 175 182 C175.92425781 181.16726562 176.84851563 180.33453125 177.80078125 179.4765625 C187.82820862 170.01777209 194.97639038 158.85671944 200 146 C200.36867187 145.05769531 200.73734375 144.11539063 201.1171875 143.14453125 C209.42396602 120.19478184 207.72838436 95.62886557 197.77685547 73.61010742 C191.67467425 60.7246836 183.29150552 48.81492996 172 40 C170.92878906 39.15695313 170.92878906 39.15695313 169.8359375 38.296875 C128.29193467 7.45149497 73.85978794 15.14182155 40 53 Z " fill="#007F7F" transform="translate(0,0)"/>
<path d="M0 0 C4.79648952 2.99598357 8.78927282 6.41547445 12.875 10.3125 C14.11510741 11.47999362 15.35598687 12.64666774 16.59765625 13.8125 C17.48155029 14.64394531 17.48155029 14.64394531 18.38330078 15.4921875 C20.32668116 17.30467878 22.30690078 19.06920249 24.3125 20.8125 C24.86459137 21.30503265 25.41668274 21.79756531 25.98550415 22.30502319 C27.99102968 24.05140113 27.99102968 24.05140113 30.29672241 25.55947876 C34.07025565 28.3343536 36.60327469 30.45894839 37.79693604 35.09564209 C38.05729074 38.85199991 38.0386284 42.51007592 37.9140625 46.2734375 C37.89978732 47.64723337 37.88938461 49.0210744 37.88265991 50.39492798 C37.85414578 53.98931651 37.77077408 57.58040905 37.67626953 61.17358398 C37.59086747 64.84058562 37.56288884 68.50802344 37.52734375 72.17578125 C37.46405899 77.52068584 37.38374623 82.8647082 37.25634766 88.20849609 C37.23142242 89.28134857 37.20649719 90.35420105 37.18081665 91.45956421 C37 94 37 94 36 96 C29.4 96 22.8 96 16 96 C15.94392578 92.47892578 15.94392578 92.47892578 15.88671875 88.88671875 C15.8405052 86.61294238 15.78927116 84.33933076 15.73754883 82.06567383 C15.70429812 80.48569757 15.67626654 78.90560248 15.65356445 77.32543945 C15.62001984 75.05368421 15.56770773 72.78301797 15.51171875 70.51171875 C15.50532883 69.80536789 15.4989389 69.09901703 15.49235535 68.3712616 C15.40835448 65.56846173 15.2907276 63.46884902 13.79418945 61.05541992 C11.36282468 59.62518589 9.59643036 59.61181906 6.78125 59.6015625 C5.76675781 59.59769531 4.75226563 59.59382813 3.70703125 59.58984375 C2.64871094 59.60144531 1.59039062 59.61304688 0.5 59.625 C-0.55832031 59.61339844 -1.61664063 59.60179687 -2.70703125 59.58984375 C-3.72152344 59.59371094 -4.73601562 59.59757812 -5.78125 59.6015625 C-6.71001953 59.60494629 -7.63878906 59.60833008 -8.59570312 59.61181641 C-10.99263428 59.84949324 -10.99263428 59.84949324 -12.79418945 61.05541992 C-14.64630344 64.04227716 -14.48083833 67.09815472 -14.51171875 70.51171875 C-14.52966995 71.23994339 -14.54762115 71.96816803 -14.56611633 72.71846008 C-14.62024213 75.04141471 -14.6541208 77.36416366 -14.6875 79.6875 C-14.72067125 81.26370051 -14.75516073 82.83987388 -14.79101562 84.41601562 C-14.8759693 88.27719536 -14.94276876 92.13831387 -15 96 C-18.31248187 96.02888146 -21.62493167 96.04675799 -24.9375 96.0625 C-25.88302734 96.07087891 -26.82855469 96.07925781 -27.80273438 96.08789062 C-29.15141602 96.09272461 -29.15141602 96.09272461 -30.52734375 96.09765625 C-31.35999756 96.10289307 -32.19265137 96.10812988 -33.05053711 96.11352539 C-35 96 -35 96 -36 95 C-36.7050958 87.02888074 -36.67672668 78.94938585 -36.80750179 70.94888687 C-36.86902923 67.24412831 -36.95687461 63.54444183 -37.11108398 59.84228516 C-38.16345725 33.95007399 -38.16345725 33.95007399 -32.96630859 27.21582031 C-30.1525506 24.32797231 -27.09934108 22.06131733 -23.64102173 20.00244141 C-21.4447504 18.66081791 -19.62208701 17.0067912 -17.75 15.25 C-17.151875 14.734375 -16.55375 14.21875 -15.9375 13.6875 C-12.6778009 10.84840724 -9.49257389 7.92635711 -6.296875 5.015625 C-4.26187041 3.22980465 -2.19099251 1.58796705 0 0 Z " fill="#007E7E" transform="translate(112,64)"/>
<path d="M0 0 C3.48821989 2.85356429 6.77195102 5.85722023 10 9 C10.86625 9.804375 11.7325 10.60875 12.625 11.4375 C24.24641138 23.97639123 31.35877355 37.63356989 36 54 C36.36931641 55.23556641 36.36931641 55.23556641 36.74609375 56.49609375 C42.53270427 79.52281285 35.82592725 104.91117709 24.30932617 124.93139648 C20.36784584 131.39152959 15.36407281 136.70373148 10 142 C9.1853125 142.81339844 8.370625 143.62679687 7.53125 144.46484375 C-7.04510505 158.30764847 -27.77194206 167.85374338 -48 169 C-49.65515625 169.09667969 -49.65515625 169.09667969 -51.34375 169.1953125 C-77.96488391 169.99394652 -101.77124372 160.46010858 -121.13916016 142.37597656 C-138.45967036 125.54571716 -148.70509253 101.71321408 -149.29296875 77.54467773 C-149.51413757 50.8523656 -139.5492764 28.09933732 -121 9 C-88.23830279 -23.87108518 -37.32194555 -26.62395597 0 0 Z M-84 -8 C-85.54107422 -7.49146484 -85.54107422 -7.49146484 -87.11328125 -6.97265625 C-109.28133874 1.27797177 -126.54587108 18.86842888 -136.34375 40.08984375 C-141.36140329 51.57538836 -143.17986539 62.32085702 -143.1875 74.75 C-143.19974609 75.78382812 -143.21199219 76.81765625 -143.22460938 77.8828125 C-143.26266045 98.02451508 -135.47721949 118.04301823 -122 133 C-121.56945312 133.47969238 -121.13890625 133.95938477 -120.6953125 134.45361328 C-106.23730305 150.33598171 -86.26155196 162.0724255 -64.3840332 163.12597656 C-47.42456488 163.65669836 -47.42456488 163.65669836 -31 160 C-29.89011719 159.6596875 -28.78023438 159.319375 -27.63671875 158.96875 C-4.67312631 151.54009059 12.34173224 135.54156279 23.625 114.5625 C33.29708887 94.88647653 35.55822804 71.65012691 29.25390625 50.5625 C25.21524223 39.08816484 20.32148529 29.65104879 13 20 C12.49726563 19.32324219 11.99453125 18.64648438 11.4765625 17.94921875 C-0.95181841 2.32394217 -22.01007946 -9.13545355 -41.80126953 -11.78466797 C-56.24972828 -13.19967359 -70.22147652 -12.71739278 -84 -8 Z " fill="#131A1A" transform="translate(168,37)"/>
<path d="M0 0 C2.21792711 0.88641827 3.46963141 1.84971326 5.18652344 3.50048828 C5.7643457 4.04801758 6.34216797 4.59554687 6.9375 5.15966797 C7.54045898 5.74393555 8.14341797 6.32820313 8.76464844 6.93017578 C10.02430042 8.1262941 11.28471112 9.32161394 12.54589844 10.51611328 C13.14789063 11.08942383 13.74988281 11.66273437 14.37011719 12.25341797 C16.88313481 14.62466797 19.486495 16.88298366 22.10058594 19.14111328 C26.12294743 22.63810511 30.0584441 26.23376944 34.01464844 29.80517578 C36.50333034 32.04576479 38.99276394 34.28550744 41.48339844 36.52392578 C43.25833066 38.12355605 45.02878912 39.72815775 46.79589844 41.33642578 C47.69308594 42.15111328 48.59027344 42.96580078 49.51464844 43.80517578 C50.32933594 44.54767578 51.14402344 45.29017578 51.98339844 46.05517578 C53.89731275 47.84858618 53.89731275 47.84858618 56.01464844 48.80517578 C56.01464844 50.45517578 56.01464844 52.10517578 56.01464844 53.80517578 C51.44949056 53.69383047 49.35684673 52.47516523 46.26464844 49.30517578 C45.69230469 48.67611328 45.11996094 48.04705078 44.53027344 47.39892578 C43.08568788 45.69904686 43.08568788 45.69904686 41.01464844 44.80517578 C41.02464119 45.87846382 41.02464119 45.87846382 41.03483582 46.97343445 C41.09502229 53.72654464 41.140661 60.47957964 41.17008495 67.23289776 C41.18572087 70.70461688 41.20692056 74.17611382 41.2409668 77.64770508 C41.27988907 81.6416229 41.29437473 85.63530841 41.30761719 89.62939453 C41.32310104 90.8722673 41.3385849 92.11514008 41.35453796 93.39567566 C41.35476456 94.55650162 41.35499115 95.71732758 41.35522461 96.91333008 C41.36521736 98.44222115 41.36521736 98.44222115 41.37541199 100.0019989 C40.95386382 103.27747966 39.95249121 105.15374901 38.01464844 107.80517578 C34.27654148 109.67422926 29.81633666 109.076341 25.70214844 109.11767578 C24.75146484 109.14667969 23.80078125 109.17568359 22.82128906 109.20556641 C21.89896484 109.21394531 20.97664063 109.22232422 20.02636719 109.23095703 C19.18549561 109.24553955 18.34462402 109.26012207 17.47827148 109.27514648 C13.96964198 108.60582612 12.41726444 107.44258452 10.01464844 104.80517578 C9.4968301 102.06980663 9.29227645 99.93104865 9.30761719 97.19580078 C9.29249588 96.46899109 9.27737457 95.7421814 9.26179504 94.99334717 C9.21893276 92.68030745 9.21008256 90.36857297 9.20214844 88.05517578 C9.17900262 86.48352653 9.15363709 84.9119083 9.12597656 83.34033203 C9.05897016 79.49457054 9.03800379 75.65243876 9.01464844 71.80517578 C2.74464844 71.80517578 -3.52535156 71.80517578 -9.98535156 71.80517578 C-9.99953125 74.14095703 -10.01371094 76.47673828 -10.02832031 78.88330078 C-10.05895234 81.15053678 -10.09803754 83.41748075 -10.13793945 85.68457031 C-10.16110717 87.25770711 -10.17551236 88.83099874 -10.1809082 90.40429688 C-10.19020782 92.6691115 -10.23121134 94.93149545 -10.27832031 97.19580078 C-10.27242134 98.24758514 -10.27242134 98.24758514 -10.2664032 99.32061768 C-10.37421601 102.9451845 -10.74211891 104.53991551 -13.22290039 107.24536133 C-17.62064855 109.72854409 -21.53787168 109.42552114 -26.48535156 109.36767578 C-27.4225 109.39152344 -28.35964844 109.41537109 -29.32519531 109.43994141 C-30.23398438 109.43800781 -31.14277344 109.43607422 -32.07910156 109.43408203 C-32.90087891 109.43480713 -33.72265625 109.43553223 -34.56933594 109.4362793 C-38.4935349 108.41121318 -39.69583285 107.2003694 -41.98535156 103.80517578 C-42.68416874 99.3375469 -42.56569738 94.92263487 -42.47363281 90.41064453 C-42.46655807 89.10815262 -42.45948334 87.80566071 -42.45219421 86.46369934 C-42.43316669 83.01253694 -42.38410595 79.56243839 -42.32867432 76.11169434 C-42.27738805 72.58583974 -42.25466039 69.05981205 -42.22949219 65.53369141 C-42.17598054 58.62375109 -42.09072129 51.71451461 -41.98535156 44.80517578 C-42.73300781 45.46646484 -43.48066406 46.12775391 -44.25097656 46.80908203 C-45.72824219 48.07558594 -45.72824219 48.07558594 -47.23535156 49.36767578 C-48.20988281 50.21458984 -49.18441406 51.06150391 -50.18847656 51.93408203 C-52.98535156 53.80517578 -52.98535156 53.80517578 -55.34472656 53.58251953 C-55.88613281 53.32599609 -56.42753906 53.06947266 -56.98535156 52.80517578 C-56.4120281 49.16336055 -55.05406128 47.52090273 -52.42285156 44.99267578 C-51.69710937 44.29400391 -50.97136719 43.59533203 -50.22363281 42.87548828 C-47.56442581 40.41583782 -44.86339734 38.01588578 -42.11816406 35.65283203 C-39.71158335 33.56801028 -37.34770212 31.43996046 -34.98535156 29.30517578 C-32.07046227 26.67337134 -29.14261945 24.06230653 -26.17285156 21.49267578 C-22.52063794 18.31554686 -18.97246214 15.0331467 -15.42285156 11.74267578 C-13.76452936 10.21410237 -12.10546038 8.68634304 -10.44628906 7.15869141 C-9.19995215 6.00399691 -7.96628739 4.83564945 -6.73535156 3.66455078 C-2.49693185 -0.24502602 -2.49693185 -0.24502602 0 0 Z M-0.98535156 6.80517578 C-1.89414063 7.62308594 -1.89414063 7.62308594 -2.82128906 8.45751953 C-4.58938875 10.04880925 -6.35762851 11.63994332 -8.12597656 13.23095703 C-9.94994087 14.87302326 -11.77295737 16.5161433 -13.59472656 18.16064453 C-17.41395102 21.6062492 -21.23920366 25.04292137 -25.11035156 28.43017578 C-25.70453384 28.96520721 -26.29871613 29.50023865 -26.91090393 30.05148315 C-28.98535156 31.80517578 -28.98535156 31.80517578 -31.08506775 33.15872192 C-34.66698349 35.65154608 -36.68733 37.51866863 -37.69216919 41.85638428 C-37.9278161 45.66440389 -37.91309808 49.42550912 -37.80175781 53.23486328 C-37.78935702 54.63491281 -37.780373 56.03499639 -37.77464294 57.43508911 C-37.74989413 61.1018636 -37.67626896 64.76609966 -37.59295654 68.4319458 C-37.53269619 71.43558581 -37.50641504 74.4390753 -37.48198032 77.44318962 C-37.43148517 83.63582105 -37.35452515 89.82802232 -37.22583008 96.01953125 C-37.20392105 97.11538544 -37.18201202 98.21123962 -37.15943909 99.34030151 C-37.25995773 101.74908054 -37.25995773 101.74908054 -35.98535156 102.80517578 C-34.49663297 102.8918701 -33.00390657 102.91221072 -31.51269531 102.90283203 C-30.16401367 102.89799805 -30.16401367 102.89799805 -28.78808594 102.89306641 C-27.84255859 102.8846875 -26.89703125 102.87630859 -25.92285156 102.86767578 C-24.49875977 102.8609082 -24.49875977 102.8609082 -23.04589844 102.85400391 C-20.69232091 102.84217688 -18.33886679 102.82569603 -15.98535156 102.80517578 C-15.97076904 101.82121826 -15.95618652 100.83726074 -15.94116211 99.82348633 C-15.88318158 96.17223804 -15.80594971 92.52160667 -15.72290039 88.87084961 C-15.68964968 87.29087335 -15.6616181 85.71077827 -15.63891602 84.13061523 C-15.6053714 81.85885999 -15.55305929 79.58819375 -15.49707031 77.31689453 C-15.48748543 76.25736824 -15.48748543 76.25736824 -15.47770691 75.17643738 C-15.39370604 72.37363751 -15.27607916 70.2740248 -13.77954102 67.8605957 C-11.34817624 66.43036167 -9.58178192 66.41699484 -6.76660156 66.40673828 C-5.75210938 66.40287109 -4.73761719 66.39900391 -3.69238281 66.39501953 C-2.6340625 66.40662109 -1.57574219 66.41822266 -0.48535156 66.43017578 C0.57296875 66.41857422 1.63128906 66.40697266 2.72167969 66.39501953 C3.73617187 66.39888672 4.75066406 66.40275391 5.79589844 66.40673828 C6.72466797 66.41012207 7.6534375 66.41350586 8.61035156 66.41699219 C11.01464844 66.80517578 11.01464844 66.80517578 12.80883789 67.8605957 C14.66095188 70.84745294 14.49548677 73.9033305 14.52636719 77.31689453 C14.54431839 78.04511917 14.56226959 78.77334381 14.58076477 79.52363586 C14.63489057 81.84659049 14.66876924 84.16933944 14.70214844 86.49267578 C14.73531968 88.06887629 14.76980917 89.64504966 14.80566406 91.22119141 C14.89309871 95.08254944 14.95314158 98.94296932 15.01464844 102.80517578 C21.61464844 102.80517578 28.21464844 102.80517578 35.01464844 102.80517578 C38.46381853 95.9068356 36.73358223 84.88601678 36.8739624 77.11489487 C36.94066767 73.48718023 37.03550737 69.86537963 37.20117188 66.24072266 C38.62909776 49.1545731 38.62909776 49.1545731 32.81542969 33.87133789 C29.80578373 30.77963299 26.53819594 28.2952897 22.88963318 26.00534058 C20.0560008 24.19155205 17.58024112 22.04097457 15.01464844 19.86767578 C14.14710937 19.17673828 13.27957031 18.48580078 12.38574219 17.77392578 C9.5654404 15.4321925 7.03608609 12.90509427 4.54980469 10.21533203 C2.83485591 8.64002285 1.13190307 7.75176695 -0.98535156 6.80517578 Z " fill="#131717" transform="translate(112.9853515625,57.19482421875)"/>
<path d="M0 0 C5.11060982 1.3230129 7.96329511 3.42747251 11.75 7.0625 C15.09626715 10.42387068 15.09626715 10.42387068 19 13 C19 14.65 19 16.3 19 18 C14.43484212 17.88865469 12.3421983 16.66998945 9.25 13.5 C8.67765625 12.8709375 8.1053125 12.241875 7.515625 11.59375 C6.07103944 9.89387108 6.07103944 9.89387108 4 9 C4 28.14 4 47.28 4 67 C3.67 67 3.34 67 3 67 C3 53.8 3 40.6 3 27 C2.01 27 1.02 27 0 27 C0 39.87 0 52.74 0 66 C-0.33 66 -0.66 66 -1 66 C-1.02312659 57.54232666 -1.0409167 49.08466644 -1.05181217 40.62696934 C-1.05704031 36.70011342 -1.06413669 32.77327906 -1.07543945 28.84643555 C-1.0862708 25.05985743 -1.09227736 21.2733001 -1.09487724 17.48670769 C-1.09673105 16.03895681 -1.10035081 14.59120712 -1.10573006 13.14346504 C-1.11294367 11.12242865 -1.11340808 9.10137152 -1.11352539 7.08032227 C-1.115746 5.92782486 -1.11796661 4.77532745 -1.12025452 3.58790588 C-1 1 -1 1 0 0 Z " fill="#0E1010" transform="translate(150,93)"/>
<path d="M0 0 C0.33 0 0.66 0 1 0 C1.19217298 4.52024275 1.37090744 9.04073941 1.53710938 13.56201172 C1.59557259 15.10056868 1.65773085 16.6389898 1.72363281 18.17724609 C1.81762837 20.38614165 1.89840086 22.59518213 1.9765625 24.8046875 C2.00875885 25.49432587 2.0409552 26.18396423 2.0741272 26.89450073 C2.12770248 28.59566977 2.0726782 30.29953998 2 32 C0 34 0 34 -2.15478516 34.22705078 C-3.02409668 34.21657715 -3.8934082 34.20610352 -4.7890625 34.1953125 C-5.73007813 34.18886719 -6.67109375 34.18242187 -7.640625 34.17578125 C-9.11789063 34.15064453 -9.11789063 34.15064453 -10.625 34.125 C-11.61757812 34.11597656 -12.61015625 34.10695312 -13.6328125 34.09765625 C-16.08878134 34.07404116 -18.54427168 34.04110799 -21 34 C-21 33.01 -21 32.02 -21 31 C-19.71222656 30.93941406 -18.42445312 30.87882812 -17.09765625 30.81640625 C-15.41925841 30.73201753 -13.74087364 30.6473687 -12.0625 30.5625 C-11.21236328 30.52318359 -10.36222656 30.48386719 -9.48632812 30.44335938 C-8.67744141 30.40146484 -7.86855469 30.35957031 -7.03515625 30.31640625 C-5.91185913 30.26141968 -5.91185913 30.26141968 -4.76586914 30.20532227 C-2.97538674 30.18228937 -2.97538674 30.18228937 -2 29 C-1.93702001 27.27716834 -1.94067772 25.55181081 -1.97265625 23.828125 C-1.98490234 22.77109375 -1.99714844 21.7140625 -2.00976562 20.625 C-2.04467881 18.39055631 -2.08368328 16.15617248 -2.12695312 13.921875 C-2.13791016 12.8596875 -2.14886719 11.7975 -2.16015625 10.703125 C-2.17699463 9.73020508 -2.19383301 8.75728516 -2.21118164 7.75488281 C-1.98566411 4.81298703 -1.23110797 2.66562959 0 0 Z " fill="#1D1D1D" transform="translate(100,130)"/>
<path d="M0 0 C0.99 0 1.98 0 3 0 C3 13.2 3 26.4 3 40 C1.02 40.66 -0.96 41.32 -3 42 C-2.51781006 41.27925293 -2.51781006 41.27925293 -2.02587891 40.54394531 C-0.54098307 36.86174287 -0.6417276 33.21171574 -0.5859375 29.296875 C-0.56657135 28.45908508 -0.5472052 27.62129517 -0.5272522 26.75811768 C-0.46759276 24.08884787 -0.42112587 21.41953461 -0.375 18.75 C-0.33680764 16.93748146 -0.29775518 15.12498082 -0.2578125 13.3125 C-0.16190248 8.87514585 -0.0778212 4.43770675 0 0 Z " fill="#1E1E1E" transform="translate(150,120)"/>
<path d="M0 0 C0.33 0.99 0.66 1.98 1 3 C1.66 3.66 2.32 4.32 3 5 C3.10442677 7.4432849 3.09024118 9.76034158 2.9765625 12.1953125 C2.95153656 12.90275604 2.92651062 13.61019958 2.90072632 14.33908081 C2.8184671 16.60153719 2.7219031 18.86312806 2.625 21.125 C2.56676631 22.65751658 2.5094629 24.19006881 2.453125 25.72265625 C2.31288005 29.4822698 2.15980243 33.241169 2 37 C1.67 37 1.34 37 1 37 C0.67 27.1 0.34 17.2 0 7 C-0.89639252 10.58557008 -1.11627846 13.20942192 -1.09765625 16.859375 C-1.09443359 17.97441406 -1.09121094 19.08945313 -1.08789062 20.23828125 C-1.07951172 21.39714844 -1.07113281 22.55601562 -1.0625 23.75 C-1.05798828 24.92433594 -1.05347656 26.09867188 -1.04882812 27.30859375 C-1.03705094 30.20578072 -1.02060326 33.10286454 -1 36 C-1.66 36 -2.32 36 -3 36 C-3.07416067 31.35526018 -3.12860615 26.71086501 -3.16479492 22.06567383 C-3.17988094 20.48553464 -3.2003525 18.90543731 -3.22631836 17.32543945 C-3.26271126 15.05409415 -3.27972762 12.78330241 -3.29296875 10.51171875 C-3.30845261 9.80536789 -3.32393646 9.09901703 -3.33988953 8.3712616 C-3.34158031 3.44308222 -3.34158031 3.44308222 -1.48168945 1.03051758 C-0.99273193 0.69044678 -0.50377441 0.35037598 0 0 Z " fill="#091010" transform="translate(100,124)"/>
<path d="M0 0 C3.82669689 1.27556563 4.54152093 2.83723148 6.8125 6.125 C10.00416482 10.64996658 13.3230981 14.86348536 17 19 C15.55903414 18.57405412 14.12231288 18.13373367 12.6875 17.6875 C11.88699219 17.44386719 11.08648437 17.20023438 10.26171875 16.94921875 C7.85183261 15.93781576 6.58058021 15.07163426 5 13 C5 12.01 5 11.02 5 10 C4.01 10.33 3.02 10.66 2 11 C1.814375 9.88625 1.814375 9.88625 1.625 8.75 C1.12410486 6.01820689 1.12410486 6.01820689 -0.125 3.8125 C-0.41375 3.214375 -0.7025 2.61625 -1 2 C-0.67 1.34 -0.34 0.68 0 0 Z " fill="#101C1C" transform="translate(35,157)"/>
<path d="M0 0 C3.77548716 1.33882523 6.61387689 3.01635888 9.75 5.5 C10.52859375 6.1084375 11.3071875 6.716875 12.109375 7.34375 C14 9 14 9 15 11 C14.01 11.33 13.02 11.66 12 12 C13.32 13.32 14.64 14.64 16 16 C15.67 16.66 15.34 17.32 15 18 C14.28714844 17.40832031 13.57429688 16.81664063 12.83984375 16.20703125 C7.67541147 11.94620085 2.51419031 7.79866444 -3 4 C-1 3 -1 3 2.125 3.9375 C3.07375 4.288125 4.0225 4.63875 5 5 C4.360625 4.731875 3.72125 4.46375 3.0625 4.1875 C1 3 1 3 0 0 Z " fill="#0C1616" transform="translate(160,33)"/>
<path d="M0 0 C3 1 3 1 4.1875 3.0625 C4.455625 3.701875 4.72375 4.34125 5 5 C5.33 5 5.66 5 6 5 C6.89316269 10.93609666 6.97040422 16.06975197 6 22 C5.01 22.33 4.02 22.66 3 23 C2.92652344 21.39318359 2.92652344 21.39318359 2.8515625 19.75390625 C2.77654706 18.35674361 2.7009987 16.9596095 2.625 15.5625 C2.5940625 14.85544922 2.563125 14.14839844 2.53125 13.41992188 C2.42719371 11.60760812 2.22080108 9.80182012 2 8 C1.34 7.67 0.68 7.34 0 7 C0 4.69 0 2.38 0 0 Z " fill="#1A1F1F" transform="translate(198,86)"/>
<path d="M0 0 C6.6 0 13.2 0 20 0 C20 0.33 20 0.66 20 1 C14.06 1 8.12 1 2 1 C2 1.99 2 2.98 2 4 C3.27617188 3.90460938 4.55234375 3.80921875 5.8671875 3.7109375 C7.53642112 3.5984049 9.20569415 3.48645593 10.875 3.375 C11.71675781 3.31054688 12.55851562 3.24609375 13.42578125 3.1796875 C14.63427734 3.10234375 14.63427734 3.10234375 15.8671875 3.0234375 C16.61081543 2.97106934 17.35444336 2.91870117 18.12060547 2.86474609 C20 3 20 3 22 5 C18.25291686 6.87354157 13.74852647 6.22800786 9.625 6.25 C8.18640625 6.2809375 8.18640625 6.2809375 6.71875 6.3125 C5.79320313 6.31765625 4.86765625 6.3228125 3.9140625 6.328125 C3.0679541 6.3374707 2.2218457 6.34681641 1.35009766 6.35644531 C-1.48420219 5.92655982 -2.86636983 4.86469554 -5 3 C-4.67 2.34 -4.34 1.68 -4 1 C-3.34 1.66 -2.68 2.32 -2 3 C-1.34 2.34 -0.68 1.68 0 1 C0 0.67 0 0.34 0 0 Z " fill="#091A1A" transform="translate(77,160)"/>
<path d="M0 0 C0.66 0.33 1.32 0.66 2 1 C0.576875 1.928125 0.576875 1.928125 -0.875 2.875 C-3.94445109 4.81970969 -3.94445109 4.81970969 -6 7 C-6.99 7.495 -6.99 7.495 -8 8 C-8.763125 8.61875 -9.52625 9.2375 -10.3125 9.875 C-13 12 -13 12 -15.8125 13.625 C-16.534375 14.07875 -17.25625 14.5325 -18 15 C-18 15.66 -18 16.32 -18 17 C-16.68 16.01 -15.36 15.02 -14 14 C-13.34 14.33 -12.68 14.66 -12 15 C-14.64 17.31 -17.28 19.62 -20 22 C-20.99 21.34 -21.98 20.68 -23 20 C-23.66 19.67 -24.32 19.34 -25 19 C-17.75255204 11.2059568 -9.54545725 4.77272862 0 0 Z " fill="#091212" transform="translate(70,29)"/>
<path d="M0 0 C2.44237095 1.0854982 4.29062276 2.23708699 6.375 3.9375 C9.13740359 6.10795997 11.76594182 7.63450877 15 9 C15.66 8.67 16.32 8.34 17 8 C19.03144641 8.93446535 21.03533587 9.93224776 23 11 C23 11.66 23 12.32 23 13 C20.46688934 13.9499165 18.69236381 14.26651661 16.1328125 13.28125 C14.76908333 12.58081323 13.41503244 11.86127251 12.0703125 11.125 C9.13142183 9.5280179 6.08581571 8.28575655 3 7 C3 6.01 3 5.02 3 4 C2.01 3.67 1.02 3.34 0 3 C0 2.01 0 1.02 0 0 Z " fill="#1A1C1C" transform="translate(57,183)"/>
<path d="M0 0 C0.66 0.33 1.32 0.66 2 1 C3.52148326 1.08372659 5.04655778 1.10730027 6.5703125 1.09765625 C7.91416016 1.09282227 7.91416016 1.09282227 9.28515625 1.08789062 C10.69087891 1.07532227 10.69087891 1.07532227 12.125 1.0625 C13.54232422 1.05573242 13.54232422 1.05573242 14.98828125 1.04882812 C17.32558387 1.03702357 19.66276061 1.02055759 22 1 C22 1.99 22 2.98 22 4 C11.11 4.495 11.11 4.495 0 5 C-0.33 4.34 -0.66 3.68 -1 3 C-0.67 2.01 -0.34 1.02 0 0 Z " fill="#1E1F1F" transform="translate(101,123)"/>
<path d="M0 0 C1.65 0.33 3.3 0.66 5 1 C5 1.99 5 2.98 5 4 C4.34 4 3.68 4 3 4 C2.0268319 6.9195043 1.8070454 9.05444951 1.68359375 12.10546875 C1.64169922 13.08837891 1.59980469 14.07128906 1.55664062 15.08398438 C1.51732422 16.10814453 1.47800781 17.13230469 1.4375 18.1875 C1.39431641 19.22326172 1.35113281 20.25902344 1.30664062 21.32617188 C1.20055634 23.8839819 1.09849854 26.44188845 1 29 C-0.66077117 26.08655402 -1.249124 24.00957088 -1.23046875 20.6640625 C-1.22853516 19.84679687 -1.22660156 19.02953125 -1.22460938 18.1875 C-1.21236328 17.341875 -1.20011719 16.49625 -1.1875 15.625 C-1.18685547 14.78710938 -1.18621094 13.94921875 -1.18554688 13.0859375 C-1.1539341 8.61799887 -0.89499224 4.3962019 0 0 Z " fill="#062424" transform="translate(20,96)"/>
<path d="M0 0 C2 2 2 2 2 5 C2.66 5 3.32 5 4 5 C5.32 8.63 6.64 12.26 8 16 C8.99 15.01 9.98 14.02 11 13 C11.66 14.65 12.32 16.3 13 18 C12.34 18.66 11.68 19.32 11 20 C11.66 20.99 12.32 21.98 13 23 C12.34 23.66 11.68 24.32 11 25 C0 6.39667458 0 6.39667458 0 0 Z " fill="#091515" transform="translate(24,140)"/>
<path d="M0 0 C0.99 0 1.98 0 3 0 C2.71758359 1.46015291 2.42373386 2.91809793 2.125 4.375 C1.96257812 5.18710938 1.80015625 5.99921875 1.6328125 6.8359375 C1 9 1 9 -1 11 C-1 9.35 -1 7.7 -1 6 C-3.00604543 8.38814932 -4.20423606 10.47951075 -5.4375 13.375 C-6.99785714 16.99502858 -8.73694619 19.80051013 -11 23 C-11.33 22.34 -11.66 21.68 -12 21 C-10.96576427 18.66185675 -9.88260719 16.44132884 -8.6875 14.1875 C-6.60259947 10.18900339 -4.58689447 6.22903349 -3 2 C-2.34 2 -1.68 2 -1 2 C-0.67 1.34 -0.34 0.68 0 0 Z " fill="#0B1212" transform="translate(199,137)"/>
<path d="M0 0 C1.32 0.66 2.64 1.32 4 2 C2.78070272 3.30098717 1.54907548 4.59042437 0.3125 5.875 C-0.37199219 6.59429687 -1.05648437 7.31359375 -1.76171875 8.0546875 C-4.09591291 10.08335887 -6.08467634 11.02992733 -9 12 C-8.34 10.68 -7.68 9.36 -7 8 C-8.27310312 8.93441535 -9.543388 9.87267111 -10.8125 10.8125 C-11.87404297 11.59560547 -11.87404297 11.59560547 -12.95703125 12.39453125 C-14.78531393 13.83128877 -16.39896688 15.31815763 -18 17 C-18 14 -18 14 -16.609375 12.24609375 C-15.68898438 11.35083984 -15.68898438 11.35083984 -14.75 10.4375 C-14.14671875 9.83808594 -13.5434375 9.23867187 -12.921875 8.62109375 C-11.00430649 7.00363251 -9.32588581 5.92940109 -7 5 C-4.75 5.375 -4.75 5.375 -3 6 C-0.65712582 3.32752366 -0.65712582 3.32752366 0 0 Z " fill="#0B1313" transform="translate(105,65)"/>
<path d="M0 0 C0.33 1.32 0.66 2.64 1 4 C1.66 3.01 2.32 2.02 3 1 C3.99 1 4.98 1 6 1 C4.61811547 4.21043882 3.07578097 6.04936365 0.375 8.25 C-0.25664062 8.77078125 -0.88828125 9.2915625 -1.5390625 9.828125 C-2.02117187 10.21484375 -2.50328125 10.6015625 -3 11 C-3 8 -3 8 -1 6 C-1.66 5.67 -2.32 5.34 -3 5 C-3 5.66 -3 6.32 -3 7 C-3.66 7 -4.32 7 -5 7 C-5 7.66 -5 8.32 -5 9 C-5.66 9 -6.32 9 -7 9 C-7 9.66 -7 10.32 -7 11 C-8.32 11.33 -9.64 11.66 -11 12 C-9.625 10 -9.625 10 -8 8 C-7.34 8 -6.68 8 -6 8 C-5.7525 7.4225 -5.505 6.845 -5.25 6.25 C-3.83316683 3.6997003 -2.12372463 1.98214299 0 0 Z " fill="#091616" transform="translate(180,168)"/>
<path d="M0 0 C0.99 0 1.98 0 3 0 C5.43425238 4.96993194 6.34615998 8.34605369 6 14 C5.01 13.67 4.02 13.34 3 13 C2.87625 12.030625 2.7525 11.06125 2.625 10.0625 C2.41875 9.051875 2.2125 8.04125 2 7 C1.34 6.67 0.68 6.34 0 6 C-0.6875 3.5 -0.6875 3.5 -1 1 C-0.67 0.67 -0.34 0.34 0 0 Z " fill="#171E1E" transform="translate(28,143)"/>
<path d="M0 0 C0.33 0 0.66 0 1 0 C1.66 6.93 2.32 13.86 3 21 C2.67 20.01 2.34 19.02 2 18 C1.01 18 0.02 18 -1 18 C-0.67 20.31 -0.34 22.62 0 25 C-2.56616632 21.15075052 -2.55097676 18.5650696 -3 14 C-2.34 14.66 -1.68 15.32 -1 16 C0.26890621 13.96774869 0.26890621 13.96774869 -0.5 11.375 C-1.10546 7.288145 -0.63189128 4.07218822 0 0 Z " fill="#0C1010" transform="translate(24,114)"/>
<path d="M0 0 C3.31248187 -0.02888146 6.62493167 -0.04675799 9.9375 -0.0625 C10.88302734 -0.07087891 11.82855469 -0.07925781 12.80273438 -0.08789062 C14.15141602 -0.09272461 14.15141602 -0.09272461 15.52734375 -0.09765625 C16.77632446 -0.10551147 16.77632446 -0.10551147 18.05053711 -0.11352539 C20 0 20 0 21 1 C23.05396726 0.59070014 23.05396726 0.59070014 25 0 C24.125 3.875 24.125 3.875 23 5 C21.00041636 5.04080783 18.99954746 5.04254356 17 5 C17.33 3.68 17.66 2.36 18 1 C16.86820313 1.09539062 15.73640625 1.19078125 14.5703125 1.2890625 C13.08858388 1.40159885 11.60681055 1.51354758 10.125 1.625 C9.37863281 1.68945312 8.63226563 1.75390625 7.86328125 1.8203125 C5.9129953 1.96087365 3.95530533 1.98759849 2 2 C1.34 1.34 0.68 0.68 0 0 Z " fill="#0B1111" transform="translate(128,160)"/>
<path d="M0 0 C0.99 0.33 1.98 0.66 3 1 C1.75323147 2.27400377 0.5024352 3.54406654 -0.75 4.8125 C-1.44609375 5.52019531 -2.1421875 6.22789063 -2.859375 6.95703125 C-8.14340344 12 -8.14340344 12 -11 12 C-11.33 11.01 -11.66 10.02 -12 9 C-11.4225 8.7525 -10.845 8.505 -10.25 8.25 C-7.86550111 7.06009525 -7.86550111 7.06009525 -5.875 4.875 C-5.25625 4.25625 -4.6375 3.6375 -4 3 C-3.34 3 -2.68 3 -2 3 C-2 2.34 -2 1.68 -2 1 C-1.34 0.67 -0.68 0.34 0 0 Z " fill="#0D1414" transform="translate(87,83)"/>
<path d="M0 0 C0.66 0 1.32 0 2 0 C3.23076923 5.41538462 3.23076923 5.41538462 2.0625 8.375 C1.711875 8.91125 1.36125 9.4475 1 10 C0.01 9.67 -0.98 9.34 -2 9 C-2.33 9.99 -2.66 10.98 -3 12 C-3.66 11.67 -4.32 11.34 -5 11 C-4.625 8.5625 -4.625 8.5625 -4 6 C-2 5 -2 5 1 4 C0.67 2.68 0.34 1.36 0 0 Z " fill="#152222" transform="translate(201,128)"/>
<path d="M0 0 C2.475 0.495 2.475 0.495 5 1 C5 2.32 5 3.64 5 5 C6.32 5.66 7.64 6.32 9 7 C9 7.99 9 8.98 9 10 C8.01 10.33 7.02 10.66 6 11 C5.9175 10.21625 5.835 9.4325 5.75 8.625 C5.5025 7.75875 5.255 6.8925 5 6 C3.68352881 5.30062468 2.34977849 4.63270867 1 4 C0.25 1.875 0.25 1.875 0 0 Z " fill="#1A1E1E" transform="translate(171,43)"/>
<path d="M0 0 C3.21043882 1.38188453 5.04936365 2.92421903 7.25 5.625 C8.03117188 6.57246094 8.03117188 6.57246094 8.828125 7.5390625 C9.40820312 8.26222656 9.40820312 8.26222656 10 9 C9.67 9.66 9.34 10.32 9 11 C7 10 7 10 6 9 C5.01 10.485 5.01 10.485 4 12 C3.34 10.68 2.68 9.36 2 8 C2.66 8 3.32 8 4 8 C2.6910428 4.87802522 2.6910428 4.87802522 0 3 C0 2.01 0 1.02 0 0 Z " fill="#0A1414" transform="translate(176,45)"/>
<path d="M0 0 C0.66 0.33 1.32 0.66 2 1 C1.01 2.485 1.01 2.485 0 4 C-1.2236068 6.0745356 -1.2236068 6.0745356 -1 9 C-2.32 9.33 -3.64 9.66 -5 10 C-5.68359375 8.203125 -5.68359375 8.203125 -6 6 C-4.78515625 4.296875 -4.78515625 4.296875 -3.0625 2.75 C-2.21365234 1.96882813 -2.21365234 1.96882813 -1.34765625 1.171875 C-0.90292969 0.78515625 -0.45820312 0.3984375 0 0 Z " fill="#0E1313" transform="translate(62,101)"/>
<path d="M0 0 C0.99 0.66 1.98 1.32 3 2 C2.01 2.495 2.01 2.495 1 3 C1 3.66 1 4.32 1 5 C-1.8125 6.125 -1.8125 6.125 -5 7 C-5.99 6.34 -6.98 5.68 -8 5 C-4.04 2.525 -4.04 2.525 0 0 Z " fill="#191E1E" transform="translate(147,194)"/>
<path d="M0 0 C0.66 0.66 1.32 1.32 2 2 C3.32 1.34 4.64 0.68 6 0 C4.68775452 3.93673644 3.08089673 6.22719294 0 9 C0 7.68 0 6.36 0 5 C-0.66 4.34 -1.32 3.68 -2 3 C-1.34 2.01 -0.68 1.02 0 0 Z " fill="#0B1515" transform="translate(186,160)"/>
<path d="M0 0 C0.66 0.33 1.32 0.66 2 1 C1.58578031 5.83256305 -0.46413986 7.82679218 -4 11 C-5 8 -5 8 -4.00390625 5.95703125 C-3.52824219 5.24933594 -3.05257812 4.54164063 -2.5625 3.8125 C-2.08941406 3.09707031 -1.61632812 2.38164062 -1.12890625 1.64453125 C-0.75636719 1.10183594 -0.38382813 0.55914062 0 0 Z " fill="#1F2020" transform="translate(192,152)"/>
<path d="M0 0 C0.33 0.66 0.66 1.32 1 2 C1.66 2.33 2.32 2.66 3 3 C3.33 3.66 3.66 4.32 4 5 C-0.75 9 -0.75 9 -3 9 C-2.7215625 8.1028125 -2.7215625 8.1028125 -2.4375 7.1875 C-1.77906313 4.83591238 -1.77906313 4.83591238 -3 2 C-2.01 1.34 -1.02 0.68 0 0 Z " fill="#111515" transform="translate(68,96)"/>
<path d="M0 0 C1.8871875 0.0309375 1.8871875 0.0309375 3.8125 0.0625 C4.1425 1.0525 4.4725 2.0425 4.8125 3.0625 C1.1825 3.0625 -2.4475 3.0625 -6.1875 3.0625 C-6.5175 2.4025 -6.8475 1.7425 -7.1875 1.0625 C-4.43671116 0.14557039 -2.82801087 -0.04636083 0 0 Z " fill="#202020" transform="translate(119.1875,200.9375)"/>
<path d="M0 0 C1.31611677 0.95336021 2.62778961 1.91285774 3.9375 2.875 C4.66839844 3.40867187 5.39929688 3.94234375 6.15234375 4.4921875 C8 6 8 6 9 8 C8.4225 7.690625 7.845 7.38125 7.25 7.0625 C5.13104488 6.06188231 3.3073576 5.3845596 1 5 C0.01 5.495 0.01 5.495 -1 6 C-2.32 4.68 -3.64 3.36 -5 2 C-3.68 2.33 -2.36 2.66 -1 3 C-0.67 2.01 -0.34 1.02 0 0 Z " fill="#0A1515" transform="translate(117,61)"/>
<path d="M0 0 C0.99 0.33 1.98 0.66 3 1 C3 1.66 3 2.32 3 3 C3.94875 2.484375 4.8975 1.96875 5.875 1.4375 C6.90625 0.963125 7.9375 0.48875 9 0 C9.66 0.33 10.32 0.66 11 1 C9.40233897 1.86627399 7.79660056 2.71766465 6.1875 3.5625 C5.29417969 4.03816406 4.40085938 4.51382813 3.48046875 5.00390625 C1 6 1 6 -2 5 C-1.34 3.35 -0.68 1.7 0 0 Z " fill="#0C1313" transform="translate(149,192)"/>
<path d="M0 0 C1.65 0.33 3.3 0.66 5 1 C3.86848239 4.39455284 2.5712768 5.57997478 0 8 C-0.5775 8.5775 -1.155 9.155 -1.75 9.75 C-2.36875 10.36875 -2.36875 10.36875 -3 11 C-2.38930856 7.43763328 -1.38836467 4.33207521 0 1 C0 0.67 0 0.34 0 0 Z " fill="#1F2222" transform="translate(36,58)"/>
<path d="M0 0 C-1.92989218 1.19982444 -3.86919228 2.38452818 -5.8125 3.5625 C-7.43091797 4.55443359 -7.43091797 4.55443359 -9.08203125 5.56640625 C-12 7 -12 7 -15 6 C-4.43478261 -2.2173913 -4.43478261 -2.2173913 0 0 Z " fill="#091414" transform="translate(78,32)"/>
<path d="M0 0 C0.99 0.33 1.98 0.66 3 1 C1.37982158 2.33918806 -0.24629343 3.6711969 -1.875 5 C-3.23238281 6.11375 -3.23238281 6.11375 -4.6171875 7.25 C-7 9 -7 9 -9 9 C-7.65662007 4.96986021 -5.30901479 3.56617473 -2 1 C-1.34 0.67 -0.68 0.34 0 0 Z " fill="#0A1414" transform="translate(171,182)"/>
<path d="M0 0 C2.4375 0.8125 2.4375 0.8125 5 2 C5.33 2.99 5.66 3.98 6 5 C5.01 5.33 4.02 5.66 3 6 C3 5.34 3 4.68 3 4 C2.01 4 1.02 4 0 4 C-0.33 4.66 -0.66 5.32 -1 6 C-1.99 6 -2.98 6 -4 6 C-4 4 -4 4 -2 1.875 C-1.34 1.25625 -0.68 0.6375 0 0 Z " fill="#202222" transform="translate(112,59)"/>
<path d="M0 0 C0.66 0 1.32 0 2 0 C2 0.99 2 1.98 2 3 C2.99 3.33 3.98 3.66 5 4 C5.33 4.66 5.66 5.32 6 6 C8.52733235 6.65555119 8.52733235 6.65555119 11 7 C10.01 8.32 9.02 9.64 8 11 C6.84501103 9.92643323 5.70132133 8.84070212 4.5625 7.75 C3.92441406 7.14671875 3.28632812 6.5434375 2.62890625 5.921875 C0.91483694 3.89951984 0.40641122 2.58729395 0 0 Z " fill="#0B1313" transform="translate(38,167)"/>
<path d="M0 0 C1.2380014 3.57644848 0.74926071 6.33694766 0 10 C-0.99 9.34 -1.98 8.68 -3 8 C-3.99 8.495 -3.99 8.495 -5 9 C-5 7.35 -5 5.7 -5 4 C-4.0409375 3.8453125 -4.0409375 3.8453125 -3.0625 3.6875 C-2.381875 3.460625 -1.70125 3.23375 -1 3 C-0.67 2.01 -0.34 1.02 0 0 Z " fill="#0D1010" transform="translate(26,90)"/>
<path d="M0 0 C0.66 0.99 1.32 1.98 2 3 C0.25 5 0.25 5 -2 7 C-3.32 7 -4.64 7 -6 7 C-5.67 5.68 -5.34 4.36 -5 3 C-3.35 2.67 -1.7 2.34 0 2 C0 1.34 0 0.68 0 0 Z " fill="#1C1D1D" transform="translate(104,65)"/>
<path d="M0 0 C6.4 0.49230769 6.4 0.49230769 9.4375 3.0625 C10.2109375 4.0215625 10.2109375 4.0215625 11 5 C10.34 5.66 9.68 6.32 9 7 C8.443125 6.38125 7.88625 5.7625 7.3125 5.125 C4.93354822 2.93893621 3.03642904 2.01214301 0 1 C0 0.67 0 0.34 0 0 Z " fill="#212222" transform="translate(153,99)"/>
<path d="M0 0 C0.66 1.32 1.32 2.64 2 4 C1.34 4 0.68 4 0 4 C-0.33 5.32 -0.66 6.64 -1 8 C-2.32 8 -3.64 8 -5 8 C-4.15857074 5.47571223 -3.30635274 3.30532837 -2 1 C-1.34 0.67 -0.68 0.34 0 0 Z " fill="#192222" transform="translate(26,86)"/>
<path d="M0 0 C0.391875 0.474375 0.78375 0.94875 1.1875 1.4375 C3.40808374 3.35179633 5.13375709 3.61266988 8 4 C6.1875 5.5625 6.1875 5.5625 4 7 C3.01 6.67 2.02 6.34 1 6 C-0.1875 3.4375 -0.1875 3.4375 -1 1 C-0.67 0.67 -0.34 0.34 0 0 Z " fill="#1B2121" transform="translate(133,77)"/>
<path d="M0 0 C0.66 0.33 1.32 0.66 2 1 C1.67 2.65 1.34 4.3 1 6 C-0.65 6.33 -2.3 6.66 -4 7 C-4 6.01 -4 5.02 -4 4 C-3.34 3.67 -2.68 3.34 -2 3 C-2 2.34 -2 1.68 -2 1 C-1.34 0.67 -0.68 0.34 0 0 Z " fill="#181F1F" transform="translate(47,48)"/>
<path d="M0 0 C1.34173403 0.92543709 2.67320159 1.86577405 4 2.8125 C5.11375 3.59560547 5.11375 3.59560547 6.25 4.39453125 C6.8275 4.92433594 7.405 5.45414062 8 6 C8 6.99 8 7.98 8 9 C4.01618925 6.83735988 1.11016455 4.28788824 -2 1 C-1.34 0.67 -0.68 0.34 0 0 Z " fill="#0D1414" transform="translate(154,94)"/>
<path d="M0 0 C0.66 0 1.32 0 2 0 C1.67 2.31 1.34 4.62 1 7 C0.34 7 -0.32 7 -1 7 C-1.33 8.65 -1.66 10.3 -2 12 C-3.12377697 8.69564916 -2.89554742 6.9493138 -1.5625 3.75 C-1.27503906 3.04359375 -0.98757812 2.3371875 -0.69140625 1.609375 C-0.46324219 1.07828125 -0.23507813 0.5471875 0 0 Z " fill="#081616" transform="translate(25,80)"/>
<path d="M0 0 C3.7952131 1.49097658 5.61042731 3.75700849 8 7 C5.25851328 6.62952882 3.41406801 6.31412056 1.1875 4.625 C0 3 0 3 0 0 Z " fill="#202222" transform="translate(40,167)"/>
<path d="M0 0 C0.66 0 1.32 0 2 0 C0.66511872 3.59391114 -0.96022723 6.75490696 -3 10 C-3.66 9.01 -4.32 8.02 -5 7 C-4.21654285 5.82780457 -3.42297164 4.66236332 -2.625 3.5 C-2.18414062 2.8503125 -1.74328125 2.200625 -1.2890625 1.53125 C-0.65097656 0.77328125 -0.65097656 0.77328125 0 0 Z " fill="#0C1515" transform="translate(38,62)"/>
<path d="M0 0 C4.82675589 2.41337795 7.69984002 5.86062408 11 10 C6.36686012 9.21138045 4.86005154 6.61269668 2 3 C1.34 2.67 0.68 2.34 0 2 C0 1.34 0 0.68 0 0 Z " fill="#081313" transform="translate(128,71)"/>
<path d="M0 0 C3.24208567 0.35049575 4.61527704 0.56221181 6.8125 3.0625 C7.204375 3.701875 7.59625 4.34125 8 5 C3.77471908 5 2.95481492 4.74375671 0 2 C0 1.34 0 0.68 0 0 Z " fill="#202121" transform="translate(117,65)"/>
<path d="M0 0 C2.64 0.33 5.28 0.66 8 1 C4.79663178 3.83374881 2.21912747 4.5205537 -2 5 C-0.68 3.68 0.64 2.36 2 1 C1.34 0.67 0.68 0.34 0 0 Z " fill="#0C1111" transform="translate(128,21)"/>
<path d="M0 0 C2.475 0.495 2.475 0.495 5 1 C5 1.99 5 2.98 5 4 C4.34 4 3.68 4 3 4 C2.67 4.99 2.34 5.98 2 7 C0 5 0 5 -0.125 2.375 C-0.08375 1.59125 -0.0425 0.8075 0 0 Z " fill="#172424" transform="translate(20,96)"/>
<path d="M0 0 C0.99 0.33 1.98 0.66 3 1 C2.67 1.66 2.34 2.32 2 3 C1.34 3 0.68 3 0 3 C0 3.99 0 4.98 0 6 C-1.32 6 -2.64 6 -4 6 C-4 5.34 -4 4.68 -4 4 C-3.34 4 -2.68 4 -2 4 C-2 3.34 -2 2.68 -2 2 C-1.34 2 -0.68 2 0 2 C0 1.34 0 0.68 0 0 Z " fill="#222222" transform="translate(177,173)"/>
<path d="M0 0 C0.99 0 1.98 0 3 0 C4.0625 1.875 4.0625 1.875 5 4 C4.67 4.66 4.34 5.32 4 6 C3.01 5.67 2.02 5.34 1 5 C0.67 3.35 0.34 1.7 0 0 Z " fill="#1A1F1F" transform="translate(23,132)"/>
<path d="M0 0 C0.99 0 1.98 0 3 0 C3.66 1.65 4.32 3.3 5 5 C2.5625 4.625 2.5625 4.625 0 4 C-0.33 3.34 -0.66 2.68 -1 2 C-0.67 1.34 -0.34 0.68 0 0 Z " fill="#192121" transform="translate(140,85)"/>
<path d="M0 0 C2.31 0.66 4.62 1.32 7 2 C7.33 3.65 7.66 5.3 8 7 C4.2047869 5.50902342 2.38957269 3.24299151 0 0 Z " fill="#091414" transform="translate(126,75)"/>
<path d="M0 0 C0.66 0 1.32 0 2 0 C1.375 1.875 1.375 1.875 0 4 C-3.125 5.25 -3.125 5.25 -6 6 C-4 4 -2 2 0 0 Z " fill="#222222" transform="translate(96,73)"/>
<path d="M0 0 C-0.33 0.99 -0.66 1.98 -1 3 C-3.64 3 -6.28 3 -9 3 C-9 2.34 -9 1.68 -9 1 C-5.92677456 0.08941469 -3.19902639 -0.08886184 0 0 Z " fill="#1F1F1F" transform="translate(137,199)"/>
<path d="M0 0 C2 1 2 1 2 1 Z M0 1 C-0.75 2.9375 -0.75 2.9375 -2 5 C-4.125 5.75 -4.125 5.75 -6 6 C-3.74193548 1 -3.74193548 1 0 1 Z " fill="#212121" transform="translate(71,30)"/>
<path d="M0 0 C1.9375 0.3125 1.9375 0.3125 4 1 C4.33 1.99 4.66 2.98 5 4 C3.02 4.99 3.02 4.99 1 6 C0.67 4.02 0.34 2.04 0 0 Z " fill="#1A2121" transform="translate(147,27)"/>
<path d="M0 0 C2 2 2 2 2 5 C2.66 5 3.32 5 4 5 C4.33 6.32 4.66 7.64 5 9 C4.01 9.495 4.01 9.495 3 10 C0 3.375 0 3.375 0 0 Z " fill="#060D0D" transform="translate(24,140)"/>
<path d="M0 0 C0.66 0.33 1.32 0.66 2 1 C0.95125002 3.62187494 0.35068687 4.79371361 -2.125 6.25 C-2.74375 6.4975 -3.3625 6.745 -4 7 C-4 4 -4 4 -2 1.8125 C-1.34 1.214375 -0.68 0.61625 0 0 Z " fill="#0C1515" transform="translate(74,90)"/>
<path d="M0 0 C0.33 0.66 0.66 1.32 1 2 C0.34 2 -0.32 2 -1 2 C-1 2.66 -1 3.32 -1 4 C-1.66 4 -2.32 4 -3 4 C-3.33 4.99 -3.66 5.98 -4 7 C-4.99 6.67 -5.98 6.34 -7 6 C-4.69 4.02 -2.38 2.04 0 0 Z " fill="#081111" transform="translate(85,81)"/>
<path d="M0 0 C1.32 0.33 2.64 0.66 4 1 C4.33 2.65 4.66 4.3 5 6 C4.01 6.495 4.01 6.495 3 7 C1.25372522 4.38058783 0.61277612 2.96175123 0 0 Z " fill="#222222" transform="translate(185,59)"/>
<path d="M0 0 C0.66 0.99 1.32 1.98 2 3 C1.071875 3.4021875 1.071875 3.4021875 0.125 3.8125 C-2.2995233 4.95556848 -2.2995233 4.95556848 -4 8 C-4.66 7.67 -5.32 7.34 -6 7 C-4.02 4.69 -2.04 2.38 0 0 Z " fill="#091111" transform="translate(44,49)"/>
<path d="M0 0 C4.3890815 0.51035831 7.33708062 1.52214277 11 4 C10.01 4.495 10.01 4.495 9 5 C6.8359375 4.22265625 6.8359375 4.22265625 4.375 3.0625 C3.55773437 2.68222656 2.74046875 2.30195313 1.8984375 1.91015625 C1.27195313 1.60980469 0.64546875 1.30945313 0 1 C0 0.67 0 0.34 0 0 Z " fill="#071212" transform="translate(149,28)"/>
</svg>
